<svg width="44" height="44" viewBox="0 0 44 44" fill="none" xmlns="http://www.w3.org/2000/svg">
<rect width="44" height="44" rx="22" fill="white"/>
<path d="M8.00485 22.9341C7.52753 21.8136 8.03605 20.5118 9.14043 20.0262L30.6384 10.5745C31.7428 10.089 33.0251 10.6035 33.5024 11.7239L34.6907 14.5132C33.3102 15.1202 32.6746 16.7475 33.2712 18.148C33.8679 19.5485 35.4708 20.1917 36.8513 19.5848L38.1476 22.6277C38.6249 23.7481 38.1164 25.05 37.012 25.5355L15.5141 34.9872C14.4097 35.4728 13.1274 34.9582 12.6501 33.8378L11.3537 30.7949C12.7342 30.188 13.3698 28.5606 12.7732 27.1601C12.1766 25.7596 10.5736 25.1165 9.19316 25.7234L8.00485 22.9341Z" fill="#00497A"/>
<path d="M6.31074 21.8078C5.9394 20.9361 6.33749 19.933 7.18384 19.5609L28.6818 10.1092C29.5281 9.7371 30.5205 10.1289 30.8918 11.0006L31.8996 13.3661C30.5752 14.2134 30.0249 15.9324 30.6607 17.4247C31.2964 18.917 32.9067 19.6861 34.4213 19.2852L35.537 21.9043C35.9084 22.776 35.5103 23.7791 34.6639 24.1512L13.166 33.6029C12.3197 33.975 11.3273 33.5832 10.956 32.7116L9.84017 30.0925C11.1645 29.2451 11.7148 27.5262 11.0791 26.0339C10.4433 24.5415 8.83307 23.7725 7.3185 24.1733L6.31074 21.8078Z" fill="#14A1FF" stroke="#0062A3"/>
<ellipse cx="2.18208" cy="2.20747" rx="2.18208" ry="2.20747" transform="matrix(0.916467 -0.402931 0.391501 0.918974 14.1797 19.2531)" fill="white"/>
<ellipse cx="2.18208" cy="2.20747" rx="2.18208" ry="2.20747" transform="matrix(0.916467 -0.402931 0.391501 0.918974 21.7305 21.6535)" fill="white"/>
<rect width="1.09624" height="13.1828" rx="0.548122" transform="matrix(0.907809 0.40903 -0.403147 0.91979 23.0079 15.3723)" fill="white"/>
<line x1="0.5" y1="-0.5" x2="14.6764" y2="-0.5" transform="matrix(0.391501 0.918975 -0.916467 0.402931 25.7109 11.4758)" stroke="#0062A3" stroke-linecap="round" stroke-dasharray="2 2"/>
<line x1="0.5" y1="-0.5" x2="14.6764" y2="-0.5" transform="matrix(0.391501 0.918975 -0.916467 0.402931 9.71094 18.5099)" stroke="#0062A3" stroke-linecap="round" stroke-dasharray="2 2"/>
<path d="M17.1834 6.14273C15.8875 9.16389 14.8723 9.22476 11.8266 9.40738C14.6233 10.1692 15.462 11.4099 15.2228 14.2128C16.5496 11.7062 16.9125 10.9615 20.2998 11.378C17.9797 10.0712 16.6644 9.3755 17.1834 6.14273Z" fill="#F26D0F"/>
<path d="M33.3304 33.6658C31.6639 32.3153 31.7986 31.6497 32.2027 29.6527C31.2511 31.3283 30.3335 31.6586 28.6236 31.0273C29.9634 32.3102 30.3668 32.6711 29.5303 34.7867C30.7412 33.5115 31.3996 32.7808 33.3304 33.6658Z" fill="#F26D0F"/>
<path d="M22.3562 37.9688C21.8026 36.5356 22.1182 36.1746 23.0649 35.0915C21.8936 35.7791 21.2134 35.6509 20.3817 34.6447C20.7579 35.9182 20.88 36.2861 19.6257 37.2859C20.8167 36.9385 21.4773 36.7266 22.3562 37.9688Z" fill="#F26D0F"/>
</svg>
